<?xml version="1.0" standalone="no"?>
<!DOCTYPE svg PUBLIC "-//W3C//DTD SVG 20010904//EN"
 "http://www.w3.org/TR/2001/REC-SVG-20010904/DTD/svg10.dtd">
<svg version="1.0" xmlns="http://www.w3.org/2000/svg"
 width="400.000000pt" height="400.000000pt" viewBox="0 0 400.000000 400.000000"
 preserveAspectRatio="xMidYMid meet">
<metadata>
Created by potrace 1.14, written by Peter Selinger 2001-2017
</metadata>
<g transform="translate(0.000000,400.000000) scale(0.100000,-0.100000)"
fill="#000000" stroke="none">
<path d="M1925 3855 c-44 -14 -97 -30 -118 -36 -21 -5 -56 -22 -79 -37 -22
-15 -48 -31 -57 -37 -40 -24 -115 -104 -148 -158 -42 -70 -89 -237 -107 -387
-14 -108 -9 -185 15 -257 14 -43 19 -104 7 -97 -4 3 -8 -25 -8 -63 0 -49 3
-64 10 -53 8 11 9 9 5 -10 -8 -36 28 -111 79 -165 42 -43 45 -50 51 -118 8
-87 -11 -177 -60 -281 l-33 -70 31 -38 c55 -65 372 -302 394 -293 7 2 12 1 10
-4 -1 -5 34 -35 78 -68 44 -33 100 -76 124 -97 24 -20 64 -48 88 -63 41 -24
45 -24 62 -9 11 10 22 38 25 64 17 118 14 112 61 112 l43 0 12 -87 c23 -170
50 -280 110 -463 142 -429 217 -815 203 -1053 l-5 -87 641 0 641 0 0 103 c0
127 -8 136 -91 107 -30 -10 -74 -24 -99 -31 -47 -14 -59 -24 -128 -106 -41
-50 -43 -51 -113 -58 -38 -4 -73 -5 -75 -2 -8 8 -21 68 -49 235 -14 82 -43
232 -65 333 -22 101 -49 237 -60 302 -29 178 -57 271 -101 337 -44 65 -79 95
-159 135 -30 15 -63 34 -72 42 -16 15 -209 116 -427 225 l-105 53 50 13 c62
18 105 59 139 133 14 32 38 71 54 86 15 16 31 45 35 66 4 21 18 54 32 75 38
55 64 117 74 175 5 29 18 79 29 112 l19 60 -21 23 c-23 24 -57 30 -57 9 0 -26
-31 -76 -51 -82 -11 -4 -26 -1 -34 5 -8 7 -45 13 -82 14 -65 1 -68 2 -71 27
-3 23 3 29 37 43 57 22 56 48 -1 40 -48 -7 -83 -34 -92 -70 -4 -13 -11 -24
-16 -24 -16 0 -12 38 6 66 26 39 2 54 -30 19 -29 -32 -33 -57 -11 -75 11 -9
12 -16 4 -26 -8 -10 -3 -18 23 -34 40 -24 50 -25 95 -3 30 14 36 14 44 2 5 -8
6 -26 3 -41 -3 -14 0 -29 6 -33 5 -3 7 -11 4 -17 -4 -6 -2 -13 4 -17 7 -4 13
-18 14 -31 3 -20 -4 -27 -37 -38 -60 -21 -165 -28 -175 -12 -11 18 -99 17
-111 -1 -7 -11 -9 -11 -9 -1 0 24 -30 -14 -36 -48 -8 -39 -14 -42 -65 -34 -37
6 -44 12 -58 45 -15 36 -31 51 -31 30 0 -13 -27 -21 -45 -15 -8 4 -15 14 -15
23 0 10 -7 26 -15 37 -8 10 -15 27 -15 36 0 10 -9 22 -20 28 -15 8 -19 17 -14
35 4 18 1 27 -10 31 -9 3 -16 10 -16 16 0 5 5 6 10 3 6 -3 10 1 10 9 0 9 6 13
13 10 20 -7 43 24 29 38 -8 8 -16 7 -29 -3 -17 -13 -17 -13 -1 13 16 24 16 33
3 105 -7 43 -18 90 -24 104 -5 15 -7 30 -4 33 4 3 1 6 -6 6 -7 0 -9 5 -6 10 4
6 1 34 -4 63 -19 87 -19 91 -10 115 5 12 15 22 23 22 7 0 16 7 20 15 8 22 25
18 38 -10 11 -24 38 -35 38 -15 0 19 21 10 32 -15 7 -17 19 -25 36 -25 21 0
23 2 11 16 -10 13 -10 17 1 24 12 7 12 11 0 25 -7 9 -19 14 -26 11 -7 -3 -16
5 -20 17 -4 12 -2 23 5 25 6 2 11 8 11 14 0 13 26 38 39 38 6 0 14 12 17 28 4
15 12 30 18 34 6 5 1 8 -13 8 -20 0 -22 4 -17 26 6 22 4 25 -12 20 -25 -8 -59
30 -67 76 -4 21 -11 36 -15 33 -4 -3 -8 7 -9 20 -5 63 -5 65 -28 65 -14 0 -23
6 -23 16 0 10 6 14 15 11 8 -4 17 -2 20 4 4 5 -1 12 -9 15 -9 3 -16 11 -16 17
0 7 4 7 12 -1 17 -17 25 -15 31 8 3 13 10 18 21 14 12 -5 16 0 16 17 0 16 3
20 10 13 14 -14 109 -1 120 16 7 11 16 12 44 3 34 -10 36 -10 36 10 0 17 2 19
9 8 5 -8 25 -15 45 -16 20 -1 40 -5 43 -9 3 -3 17 -6 31 -6 20 0 22 -3 13 -14
-9 -11 -9 -16 0 -22 9 -5 7 -10 -5 -20 -12 -8 -14 -14 -5 -19 6 -4 14 -3 18 2
9 13 46 -8 46 -27 0 -8 7 -14 15 -13 22 4 44 -35 30 -52 -8 -9 -8 -15 0 -20 5
-3 10 -13 10 -21 0 -8 14 -33 31 -54 29 -36 33 -38 48 -23 15 15 16 15 19 0 4
-18 32 -24 32 -7 0 6 3 10 8 10 11 0 13 -118 2 -125 -12 -8 -100 -8 -147 -1
-36 5 -51 -7 -34 -28 9 -11 6 -12 -16 -8 -16 3 -31 11 -36 18 -4 8 -22 12 -42
10 -19 -1 -35 2 -35 6 0 5 -5 6 -11 2 -6 -3 -9 -15 -6 -25 4 -15 0 -19 -20
-19 -14 0 -22 -4 -18 -11 4 -6 10 -8 13 -5 3 3 11 1 19 -5 9 -9 17 -8 28 1 16
14 35 5 35 -16 0 -12 4 -12 20 -4 16 9 20 8 20 -5 0 -8 -5 -15 -11 -15 -8 0
-10 -12 -6 -35 4 -24 0 -41 -13 -58 -10 -13 -20 -39 -22 -58 -3 -32 -5 -34
-38 -32 -19 1 -70 18 -112 37 -79 37 -98 42 -98 28 0 -11 46 -32 70 -32 22 0
50 -36 50 -63 0 -10 9 -21 20 -24 11 -3 21 -10 22 -17 1 -11 4 -24 8 -41 2 -5
4 -17 4 -25 1 -8 9 -14 19 -14 9 1 17 -3 17 -9 0 -7 4 -7 12 1 7 7 21 12 33
12 29 0 93 69 101 109 6 30 9 32 19 17 17 -23 25 -20 25 10 0 16 14 42 34 64
31 34 36 37 54 24 10 -7 22 -29 25 -49 3 -20 18 -50 32 -67 14 -17 46 -72 70
-122 24 -50 52 -102 63 -116 l20 -25 6 25 c21 96 27 147 25 197 -3 53 -1 58
21 63 25 6 41 30 20 30 -9 0 -11 24 -8 88 3 68 9 96 26 124 27 43 28 78 3 109
-10 13 -28 58 -39 100 -34 122 -63 194 -73 178 -6 -10 -9 -8 -9 8 0 13 -5 22
-12 20 -6 -1 -14 6 -16 16 -3 13 1 17 15 15 15 -3 17 3 14 37 -5 57 -20 81
-103 166 -88 91 -158 144 -260 199 -123 65 -222 91 -368 96 -113 4 -133 2
-205 -21z m802 -461 c-3 -3 -2 -16 3 -29 5 -14 5 -26 -3 -34 -8 -8 -8 -11 1
-11 7 0 12 -5 12 -11 0 -19 -25 -3 -26 17 -2 39 -4 44 -18 44 -7 0 -19 7 -26
15 -11 13 -7 15 25 15 21 0 36 -3 32 -6z m3 -428 c0 -9 -30 -14 -35 -6 -4 6 3
10 14 10 12 0 21 -2 21 -4z m-1070 -41 c35 -18 55 -53 65 -112 4 -24 11 -45
16 -49 31 -19 64 -164 40 -179 -6 -3 -11 -24 -11 -46 0 -35 -3 -40 -19 -34
-10 3 -30 1 -45 -4 -34 -14 -56 -4 -56 24 0 12 -11 35 -25 51 -34 40 -33 60 3
35 35 -26 82 -38 82 -21 0 6 -8 25 -17 41 -14 24 -15 37 -7 79 11 53 8 65 -16
65 -10 0 -16 12 -18 39 -2 21 -7 43 -13 50 -5 6 -20 26 -35 44 l-26 32 27 0
c14 0 39 -7 55 -15z m-55 -36 c16 -17 16 -20 -15 -47 -18 -17 -27 -32 -22 -36
6 -3 -2 -19 -19 -35 -35 -35 -38 -75 -7 -108 12 -13 18 -26 14 -30 -12 -12
-45 34 -52 72 -3 18 1 59 10 95 9 34 16 72 16 85 0 38 43 40 75 4z m-134 -91
l-9 -33 -1 32 c-1 17 2 40 6 50 12 30 16 -9 4 -49z m150 18 c-9 -11 -9 -15 1
-19 10 -4 11 -7 1 -18 -16 -16 -17 -50 -2 -46 12 2 41 -81 30 -87 -3 -2 -23 3
-44 11 -48 20 -57 50 -28 99 12 20 20 39 17 41 -6 6 16 32 28 33 5 0 3 -6 -3
-14z m1209 -96 c0 -5 -5 -10 -11 -10 -5 0 -7 5 -4 10 3 6 8 10 11 10 2 0 4 -4
4 -10z m-142 -379 c10 -6 7 -10 -12 -13 -26 -5 -41 3 -29 16 9 8 25 7 41 -3z
m32 -63 c0 -19 -2 -20 -10 -8 -13 19 -13 30 0 30 6 0 10 -10 10 -22z m-913
-206 c48 -71 53 -84 40 -100 -7 -9 -13 -9 -23 -2 -14 12 20 -58 36 -74 13 -13
13 -26 0 -26 -5 0 -10 8 -10 18 0 12 -3 13 -8 5 -6 -10 -16 -9 -45 6 -20 10
-34 21 -31 24 3 3 1 13 -4 24 -6 10 -20 42 -31 72 -20 50 -20 55 -5 72 9 10
14 25 11 33 -8 19 3 28 19 15 7 -6 30 -36 51 -67z m708 28 c39 -5 88 -10 111
-10 30 0 46 -6 65 -26 21 -23 22 -26 7 -35 -12 -7 -15 -18 -11 -48 4 -32 2
-41 -18 -54 -18 -13 -25 -14 -31 -4 -4 6 -8 8 -8 3 0 -6 -5 -5 -11 1 -11 11
-49 6 -49 -6 0 -3 -21 -7 -47 -8 -27 0 -64 -4 -83 -7 -40 -6 -83 1 -76 13 3 4
-6 13 -19 19 -37 17 -36 85 1 119 l26 24 24 -22 24 -23 -3 22 c-2 12 -9 28
-15 34 -20 20 -13 30 16 24 15 -3 59 -10 97 -16z m-191 -186 c9 -3 16 -12 16
-18 0 -16 71 -87 80 -81 16 10 49 -10 41 -23 -13 -21 -101 -19 -113 1 -5 10
-15 17 -22 17 -14 0 -26 42 -26 86 0 26 1 27 24 18z m-74 -145 c0 -6 -4 -7
-10 -4 -5 3 -10 11 -10 16 0 6 5 7 10 4 6 -3 10 -11 10 -16z m-195 1 c3 -6 -1
-7 -9 -4 -18 7 -21 14 -7 14 6 0 13 -4 16 -10z"/>
<path d="M2564 1991 c8 -12 46 -21 46 -11 0 8 -24 20 -41 20 -6 0 -8 -4 -5 -9z"/>
<path d="M2660 3080 c0 -5 5 -10 10 -10 6 0 10 5 10 10 0 6 -4 10 -10 10 -5 0
-10 -4 -10 -10z"/>
<path d="M2675 3030 c3 -5 8 -10 11 -10 2 0 4 5 4 10 0 6 -5 10 -11 10 -5 0
-7 -4 -4 -10z"/>
<path d="M2225 2966 c-15 -25 -31 -74 -20 -64 4 4 17 3 28 -3 15 -9 18 -8 12
1 -6 9 -1 12 17 8 13 -2 28 1 34 7 5 6 18 21 29 33 l19 23 -27 -10 c-23 -9
-27 -8 -27 7 0 26 -49 24 -65 -2z"/>
<path d="M1337 2049 c-10 -6 -42 -47 -72 -92 -63 -96 -143 -180 -196 -207 -20
-11 -66 -41 -101 -67 -105 -80 -279 -198 -343 -233 -33 -18 -97 -55 -142 -82
-63 -38 -88 -47 -108 -42 -14 3 -31 1 -39 -5 -8 -7 -25 -9 -39 -6 -14 4 -28 2
-31 -4 -4 -6 -20 -11 -35 -11 -16 0 -34 -7 -41 -15 -7 -8 -24 -15 -39 -15 -27
0 -37 -8 -111 -88 l-40 -44 0 -569 0 -569 1189 0 1190 0 -16 55 c-12 42 -13
61 -5 78 10 21 11 21 11 -6 1 -16 5 -26 11 -22 11 7 43 -39 47 -68 2 -12 6
-23 9 -26 3 -3 46 -8 95 -9 75 -3 90 -1 95 12 7 19 -19 369 -41 546 -28 228
-58 349 -112 454 -19 38 -37 88 -38 110 -2 23 -15 79 -30 126 -14 47 -27 112
-29 145 -2 59 -3 60 -36 71 -29 10 -37 9 -43 -2 -6 -11 -20 -13 -56 -8 -46 6
-49 5 -139 -62 -50 -38 -92 -72 -92 -75 0 -3 19 -20 43 -37 23 -17 71 -58 106
-92 l63 -61 -7 -56 c-11 -91 -7 -182 15 -319 19 -117 41 -410 31 -420 -2 -2
-36 69 -76 159 -79 177 -219 460 -298 602 -28 49 -110 180 -182 290 -141 214
-237 373 -311 512 -39 74 -45 93 -40 125 4 21 5 38 4 38 -2 0 -11 -5 -21 -11z"/>
<path d="M3983 301 c-16 -25 -17 -51 -3 -51 14 0 22 23 18 50 -3 21 -3 21 -15
1z"/>
</g>
</svg>
